<?xml version="1.0" encoding="UTF-8"?>
<!--
  Kali assistant icon.  Original geometric dragon-head mark — my own
  stylised interpretation, NOT a copy of the official Kali Linux dragon
  (which is OffSec's trademark).  White mark on a rounded dark tile so
  it reads as a deliberate app icon on any panel/background, light or
  dark.  To use a different icon, overwrite this file in place; the
  .desktop entry resolves it by the theme name "org.thepriest.kali".
-->
<svg xmlns="http://www.w3.org/2000/svg" viewBox="0 0 256 256" width="256" height="256">

  <!-- Rounded tile background (Catppuccin Mocha base, matches the app) -->
  <rect x="8" y="8" width="240" height="240" rx="52" ry="52" fill="#1e1e2e"/>
  <rect x="8" y="8" width="240" height="240" rx="52" ry="52"
        fill="none" stroke="#313244" stroke-width="2"/>

  <!-- Dragon mark.  Cutouts use the tile colour so they read as holes. -->
  <g fill="#f2f2f7" fill-rule="evenodd">

    <!-- Top crown -->
    <polygon points="128,28 119,54 137,54"/>

    <!-- Left horn -->
    <path d="M 119,54 L 92,47 L 83,56 L 69,49 L 62,59 L 48,52 L 41,64
             L 30,59 L 27,75 L 37,79 L 30,87 L 42,91 L 37,99 L 51,101
             L 48,110 L 62,108 L 60,119 L 76,113 L 85,104 L 96,92
             L 105,79 L 116,69 Z"/>

    <!-- Right horn -->
    <path d="M 137,54 L 164,47 L 173,56 L 187,49 L 194,59 L 208,52 L 215,64
             L 226,59 L 229,75 L 219,79 L 226,87 L 214,91 L 219,99 L 205,101
             L 208,110 L 194,108 L 196,119 L 180,113 L 171,104 L 160,92
             L 151,79 L 140,69 Z"/>

    <!-- Inner ear left -->
    <path d="M 88,106 L 76,120 L 83,125 L 92,116 L 96,123 L 103,113 L 99,102 Z"/>
    <!-- Inner ear right -->
    <path d="M 168,106 L 180,120 L 173,125 L 164,116 L 160,123 L 153,113 L 157,102 Z"/>

    <!-- Outer mane left -->
    <path d="M 64,126 L 50,144 L 57,153 L 45,158 L 57,167 L 50,177 L 64,172
             L 62,184 L 75,172 L 71,158 L 78,146 L 75,135 Z"/>
    <!-- Outer mane right -->
    <path d="M 192,126 L 206,144 L 199,153 L 211,158 L 199,167 L 206,177
             L 192,172 L 194,184 L 181,172 L 185,158 L 178,146 L 181,135 Z"/>

    <!-- Forehead shield -->
    <path d="M 104,79 L 152,79 L 162,103 L 162,117 L 153,133 L 128,147
             L 103,133 L 94,117 L 94,103 Z"/>

  </g>

  <!-- Cutouts (carved features) painted in the tile colour -->
  <g fill="#1e1e2e">
    <!-- Third eye -->
    <polygon points="128,90 121,104 128,118 135,104"/>
    <!-- Eyes -->
    <path d="M 104,114 L 120,121 L 120,126 L 115,126 L 104,121 Z"/>
    <path d="M 152,114 L 136,121 L 136,126 L 141,126 L 152,121 Z"/>
  </g>

  <g fill="#f2f2f7" fill-rule="evenodd">
    <!-- Cheek left -->
    <path d="M 84,126 L 74,140 L 81,150 L 93,145 L 98,135 L 93,128 Z"/>
    <!-- Cheek right -->
    <path d="M 172,126 L 182,140 L 175,150 L 163,145 L 158,135 L 163,128 Z"/>

    <!-- Upper jaw -->
    <path d="M 100,145 L 156,145 L 152,170 L 142,180 L 128,185 L 114,180
             L 104,170 Z"/>
  </g>

  <!-- Mouth cutout -->
  <path fill="#1e1e2e" d="M 116,162 L 140,162 L 137,173 L 128,178 L 119,173 Z"/>

  <g fill="#f2f2f7" fill-rule="evenodd">
    <!-- Side fangs left -->
    <polygon points="81,150 70,184 84,176 89,156"/>
    <polygon points="95,168 90,194 102,184 104,170"/>
    <!-- Side fangs right -->
    <polygon points="175,150 186,184 172,176 167,156"/>
    <polygon points="161,168 166,194 154,184 152,170"/>

    <!-- Lower beard -->
    <path d="M 113,180 L 104,206 L 116,197 L 120,208 L 124,194 L 128,210
             L 132,194 L 136,208 L 140,197 L 152,206 L 143,180 L 136,184
             L 128,185 L 120,184 Z"/>

    <!-- Chin spike -->
    <polygon points="124,194 128,224 132,194"/>
  </g>
</svg>
